<svg width="100" height="100" fill="none" xmlns="http://www.w3.org/2000/svg"><path d="M27.1 8.2c-1.4.4-3.5 1.6-4.5 2.8-.5.5-1.3 1.7-1.6 2.6-.7 1.5-.8 1.7-.8 4.9-.1 3.3-.1 3.3.4 3.9l.6.6H54c15.3 0 23.2 0 24 .3 1.2.4 3 2.3 3.4 3.6.2.6.3 2.4.3 4.2v3.2l-71 .1-1.6.8a8.9 8.9 0 0 0-4.5 4.4l-.8 1.8-.1 5.3v5.2l.5.6c.4.4.8.6 1.6.6.6 0 1 0 1 .2L3.5 71 0 89c0 .3.3.8.6 1l.5.7H99l.5-.6c.3-.3.6-.8.6-1l-3.4-18L93 53.2c0-.2.5-.2 1-.2.9 0 1.3-.2 1.7-.6l.6-.6-.1-13.3c0-12.9-.1-13.4-.6-15.1-2.2-8-8.3-13.8-16-15.2-1.7-.3-6-.3-22-.3-17 0-30 .1-30.6.2Zm54 4.3a16 16 0 0 1 6.7 4.3c2 2.1 3.2 4 4.2 6.8l.6 1.9.1 23.8H7.3v-3.2c0-1.8.1-3.6.3-4.2a6.9 6.9 0 0 1 3.5-3.6c.7-.2 10.4-.3 41.9-.3h31.3l1.1-1.2v-5.2l-.1-5.2-.8-1.6a9 9 0 0 0-4.3-4.6l-1.8-.8-22.4-.1H23.8v-1.4c0-.7 0-1.7.2-2.3a7.4 7.4 0 0 1 3.4-3.6c.6-.1 9.4-.2 31.2-.2h20.7l1.8.7ZM16 53.7l-3.2 17-3.2 16.2H4v-.7c.2-.3 1.6-8 3.4-16.9l3.1-16.2H16v.6Zm9.3-.1L23 69.9l-2.5 16.4-.1.6h-7v-.7l3.3-16.9 3.2-16.2h2.7c2.8 0 2.8 0 2.7.5Zm9.3-.3-3.3 33.5h-7.1L26.5 70 29 53a42.3 42.3 0 0 1 5.5.2Zm9.3.5L43 70.2 42 86.4c0 .5-.1.5-3.6.5-2.4 0-3.5-.1-3.5-.3L36.6 70l1.6-16.7c0-.1 1-.2 2.8-.2h2.9l-.1.7ZM53 87h-7.3l.1-.8.8-16.3.8-16.2c.1-.5.2-.5 2.9-.5H53v33.8Zm8.8-33.6L63.4 70c1 9 1.6 16.5 1.6 16.6 0 .2-1.1.3-3.5.3-3.5 0-3.6 0-3.6-.5L57 70.2l-.8-16.4v-.7H59c1.9 0 2.8 0 2.8.2Zm9.2-.2s1 7.7 2.5 16.9l2.4 16.8h-7.1l-3.3-33.5a42.3 42.3 0 0 1 5.5-.2Zm12.4 16.2 3.3 17v.6h-7l-.1-.6L77 69.9l-2.3-16.3c-.1-.5 0-.5 2.7-.5h2.7l3.2 16.2Zm9.1 0 3.3 17 .1.6h-5.4l-3.2-16.3-3.2-16.9-.1-.6h5.4l3.1 16.2Z" fill="#000"/></svg>