<svg xmlns="http://www.w3.org/2000/svg" height="448" width="640" style=""><rect id="backgroundrect" width="100%" height="100%" x="0" y="0" fill="none" stroke="none"/><g class="currentLayer" style=""><title>Layer 1</title><path fill="#C19D56" d="m626.8125009536743,70.11718725 c-7.375,-27.417968 -28.992188,-49.03125 -56.40625,-56.414062 c-50.082031,-13.703125 -250.414062,-13.703125 -250.414062,-13.703125 s-200.324219,0 -250.40625,13.183593 c-26.886719,7.375 -49.03125,29.519531999999998 -56.40625,56.933594 c-13.179688,50.078125 -13.179688,153.933594 -13.179688,153.933594 s0,104.378906 13.179688,153.933594 c7.382812,27.414062 28.992187,49.027344 56.410156,56.410156 c50.605468,13.707031 250.410156,13.707031 250.410156,13.707031 s200.324219,0 250.40625,-13.183593 c27.417969,-7.378907 49.03125,-28.992188 56.414062,-56.40625 c13.175782,-50.082032 13.175782,-153.933594 13.175782,-153.933594 s0.527344,-104.382813 -13.183594,-154.460938 zm-370.601562,249.878906 v-191.890624 l166.585937,95.945312 zm0,0 " id="svg_1" class=""/></g></svg>